# xmcd CD database file
#
# Track frame offsets:
#	150
#	17875
#	30802
#	48450
#	66942
#	86502
#	104550
#	120327
#
# Disc length: 1811 seconds
#
# Revision: 0
# Processed by: cddbd v1.5.2PL0 Copyright (c) Steve Scherf et al.
# Submitted via: NeoAudio 9.9.9
#
DISCID=5d071108
DTITLE=La Crema De New York - El Party
DYEAR=2001
DGENRE=Salsa
TTITLE0=El Party (Qué Vacilón)
TTITLE1=Salta Perico
TTITLE2=¿A Ti Que Te Pasa?
TTITLE3=Cisco Kid
TTITLE4=Quimbia
TTITLE5=Matrimonio Feliz
TTITLE6=Entre Pared Y Espada
TTITLE7=Mi Pais
EXTD=YEAR: 2001
EXTT0=
EXTT1=
EXTT2=
EXTT3=
EXTT4=
EXTT5=
EXTT6=
EXTT7=
PLAYORDER=
